<svg xmlns="http://www.w3.org/2000/svg" width="97.82" height="54.696" viewBox="0 0 97.82 54.696">
  <g id="Group_6136" data-name="Group 6136" transform="translate(-115.135 -186.826)">
    <g id="Group_6136-2" data-name="Group 6136" transform="translate(177.03 186.826)">
      <path id="Path_7708" data-name="Path 7708" d="M337.394,213.425l-3.752,1.362,3.752,1.868v19.368l-3.752,1.362,3.752,1.868v2.932L330.138,245V194.524l7.256-2.816Z" transform="translate(-330.138 -190.303)" fill="#9b5cff"/>
      <path id="Path_7709" data-name="Path 7709" d="M337.394,221.145l-3.752,1.362,3.752,1.868,0,19.368-3.749,1.362,3.749,1.865v.808l0,2.127-7.256,2.813V205.267l3.5-1.347,3.752-1.371Z" transform="translate(-330.138 -198.022)" fill="#5a61ee" opacity="0.49" style="mix-blend-mode: multiply;isolation: isolate"/>
      <path id="Path_7710" data-name="Path 7710" d="M414.832,211.312l-16.21-5.89v-18.6l16.21,5.89Z" transform="translate(-378.907 -186.826)" fill="#4bf2e3"/>
      <path id="Path_7711" data-name="Path 7711" d="M342.315,211.312l16.21-5.89v-18.6l-16.21,5.89Z" transform="translate(-338.809 -186.826)" fill="#4bb1e3"/>
      <path id="Path_7712" data-name="Path 7712" d="M414.832,289.811l-16.21-5.89v-18.6l16.21,5.89Z" transform="translate(-378.907 -242.727)" fill="#4bf2e3"/>
      <path id="Path_7713" data-name="Path 7713" d="M342.315,289.811l16.21-5.89v-18.6l-16.21,5.89Z" transform="translate(-338.809 -242.727)" fill="#4bb1e3"/>
    </g>
    <path id="Path_7714" data-name="Path 7714" d="M153.269,220.215a1.827,1.827,0,0,1-.389,1.355,1.71,1.71,0,0,1-1.222.366,4,4,0,0,1-2.522-.744,3.525,3.525,0,0,1-1.277-1.855,3.565,3.565,0,0,1-.967,1.333,4.36,4.36,0,0,1-1.5.789,10.013,10.013,0,0,1-2.188.378q-1.283.1-3,.1H128.354a19.717,19.717,0,0,1-3.866-.322,6.2,6.2,0,0,1-2.477-1.022,3.8,3.8,0,0,1-1.344-1.8,7.974,7.974,0,0,1-.4-2.71V208.1h1.2l2.077,2.077v.278a63.9,63.9,0,0,0,.311,6.421,2.167,2.167,0,0,0,1.011,1.122,5.39,5.39,0,0,0,1.966.5,19.851,19.851,0,0,0,2.455.122h10.875c.889,0,1.633-.033,2.244-.089a3.568,3.568,0,0,0,1.466-.378,1.718,1.718,0,0,0,.777-.877,4.144,4.144,0,0,0,.244-1.589v-7.976h1.444l1.844,1.844v4.654a11.386,11.386,0,0,0,.133,1.822,3.356,3.356,0,0,0,.544,1.378,2.661,2.661,0,0,0,1.078.889,4.1,4.1,0,0,0,1.722.322A1.417,1.417,0,0,1,153.269,220.215Z" transform="translate(-3.655 -14.869)" fill="#9b5cff"/>
    <path id="Path_7715" data-name="Path 7715" d="M131.153,299.061a7.874,7.874,0,0,0-2.466-1.944,7.254,7.254,0,0,0-3.344-.733,7.586,7.586,0,0,0-3.532.733,6.216,6.216,0,0,0-2.344,2.11,9.326,9.326,0,0,0-1.3,3.266,21.314,21.314,0,0,0-.4,4.31v1.866H115.3a.3.3,0,0,0-.166.033v3.277a.3.3,0,0,0,.166.033h2.488v5.565h1.755l1.578-1.589v-9.575h.022v-.378a9.615,9.615,0,0,1,1-4.743,3.624,3.624,0,0,1,3.432-1.766,4.262,4.262,0,0,1,2.011.467,3.956,3.956,0,0,1,1.366,1.2,6,6,0,0,1,.833,1.666,6.967,6.967,0,0,1,.267,1.844,3.677,3.677,0,0,1-1.166,3,5.448,5.448,0,0,1-3.477.966h-1.455V312l-.066.011h1.755a12.428,12.428,0,0,0,3.044-.366,6.128,6.128,0,0,0,2.4-1.211,5.546,5.546,0,0,0,1.6-2.133,8.226,8.226,0,0,0,.577-3.266,9.244,9.244,0,0,0-.544-3.21A8.39,8.39,0,0,0,131.153,299.061Zm38.268,3.221a10.7,10.7,0,0,0-3.643-4.443,14.648,14.648,0,0,0-5.843-2.3,32.631,32.631,0,0,0-7.842-.4v3c.567-.022,1.111-.045,1.644-.056s1.077-.022,1.611-.022a5.128,5.128,0,0,0-1.744,1.022,5.758,5.758,0,0,0-1.222,1.522,7.075,7.075,0,0,0-.722,1.877,8.539,8.539,0,0,0-.244,2.033,8.248,8.248,0,0,0,.155,1.733h2.977a2.178,2.178,0,0,1-.066-.255,7.93,7.93,0,0,1-.133-1.444,6.282,6.282,0,0,1,.778-3.321,2.433,2.433,0,0,1,2.177-1.289,2.46,2.46,0,0,1,1.366.366,2.764,2.764,0,0,1,.922,1,5.068,5.068,0,0,1,.522,1.466,9.4,9.4,0,0,1,.156,1.7,7.71,7.71,0,0,1-.122,1.377,4.477,4.477,0,0,1-.433,1.367,3.209,3.209,0,0,1-.889,1.044,2.244,2.244,0,0,1-1.333.422h-7.542v-1.9a21.05,21.05,0,0,0-.4-4.277,9.31,9.31,0,0,0-1.3-3.266,5.743,5.743,0,0,0-2.366-2.1,7.385,7.385,0,0,0-3.51-.778,7.073,7.073,0,0,0-3.343.778,7.528,7.528,0,0,0-2.5,1.933,8.655,8.655,0,0,0-1.566,2.766,10.451,10.451,0,0,0-.533,3.21,7.832,7.832,0,0,0,.6,3.266,5.2,5.2,0,0,0,1.6,2.144,6.259,6.259,0,0,0,2.4,1.2,12.136,12.136,0,0,0,3.01.333h1.7v-3.31h-1.466a5.389,5.389,0,0,1-3.444-.966,3.592,3.592,0,0,1-1.2-3,5.99,5.99,0,0,1,.3-1.844,4.83,4.83,0,0,1,.8-1.666,4.111,4.111,0,0,1,1.411-1.2,4.035,4.035,0,0,1,2-.466,3.657,3.657,0,0,1,3.432,1.766,9.431,9.431,0,0,1,1.011,4.743v2.631h-.013v8.891h1.669l1.669-1.721v-3.857h2.751c.029,0,.048.011.078.011h16.007l1.944-1.944v-.977A16.36,16.36,0,0,0,169.42,302.282Zm-7.187,6.4a9.04,9.04,0,0,0,.645-1.744,10.719,10.719,0,0,0,.278-2.588,10.33,10.33,0,0,0-.1-1.377,7.34,7.34,0,0,0-.378-1.489,9.172,9.172,0,0,0-.722-1.444,4.86,4.86,0,0,0-1.122-1.222,9.119,9.119,0,0,1,4.743,3.254,10.793,10.793,0,0,1,1.744,6.609Z" transform="translate(0 -77.083)" fill="#4bf2e3"/>
    <path id="Path_7716" data-name="Path 7716" d="M238.494,218.615a4.106,4.106,0,0,1-1.722-.322,2.66,2.66,0,0,1-1.078-.889,3.208,3.208,0,0,1-.544-1.378,11.344,11.344,0,0,1-.145-1.822V209.54l-1.833-1.833h-1.444v7.976a4.69,4.69,0,0,1-.223,1.589,1.759,1.759,0,0,1-.677.877,2.535,2.535,0,0,1-1.144.378,13.679,13.679,0,0,1-1.644.089h-2.688a1.729,1.729,0,0,0-1.222.355,1.931,1.931,0,0,0-.378,1.367,1.414,1.414,0,0,0,1.6,1.6h3.288a12.84,12.84,0,0,0,3.788-.478,3.647,3.647,0,0,0,2.266-2.122,3.464,3.464,0,0,0,1.277,1.855,3.982,3.982,0,0,0,2.522.744,1.712,1.712,0,0,0,1.222-.366,1.832,1.832,0,0,0,.377-1.355A1.414,1.414,0,0,0,238.494,218.615Z" transform="translate(-77.349 -14.869)" fill="#9b5cff"/>
    <path id="Path_7717" data-name="Path 7717" d="M278.61,207.707h-1.356v10.908H271a1.731,1.731,0,0,0-1.222.355,1.88,1.88,0,0,0-.377,1.367,1.414,1.414,0,0,0,1.6,1.6h9.542v-12.3Z" transform="translate(-109.856 -14.869)" fill="#9b5cff"/>
    <path id="Path_7718" data-name="Path 7718" d="M301.085,267.011l-2.837-1.031v-3.255l2.837,1.031Z" transform="translate(-130.398 -54.05)" fill="#9b5cff"/>
    <path id="Path_7719" data-name="Path 7719" d="M288.393,267.011l2.837-1.031v-3.255l-2.837,1.031Z" transform="translate(-123.381 -54.05)" fill="#7b28ff"/>
    <path id="Path_7720" data-name="Path 7720" d="M252.029,267.011l-2.837-1.031v-3.255l2.837,1.031Z" transform="translate(-95.465 -54.05)" fill="#9b5cff"/>
    <path id="Path_7721" data-name="Path 7721" d="M239.338,267.011l2.837-1.031v-3.255l-2.837,1.031Z" transform="translate(-88.447 -54.05)" fill="#7b28ff"/>
    <path id="Path_7722" data-name="Path 7722" d="M232.32,267.011l-2.837-1.031v-3.255l2.837,1.031Z" transform="translate(-81.43 -54.05)" fill="#9b5cff"/>
    <path id="Path_7723" data-name="Path 7723" d="M219.628,267.011l2.837-1.031v-3.255l-2.837,1.031Z" transform="translate(-74.412 -54.05)" fill="#7b28ff"/>
    <path id="Path_7724" data-name="Path 7724" d="M181.308,211.993l-2.837-1.031v-3.255l2.837,1.031Z" transform="translate(-45.103 -14.87)" fill="#9b5cff"/>
    <path id="Path_7725" data-name="Path 7725" d="M168.616,211.993l2.837-1.031v-3.255l-2.837,1.031Z" transform="translate(-38.085 -14.87)" fill="#7b28ff"/>
    <path id="Path_7726" data-name="Path 7726" d="M161.6,211.993l-2.837-1.031v-3.255l2.837,1.031Z" transform="translate(-31.067 -14.87)" fill="#9b5cff"/>
    <path id="Path_7727" data-name="Path 7727" d="M148.907,211.993l2.837-1.031v-3.255l-2.837,1.031Z" transform="translate(-24.05 -14.87)" fill="#7b28ff"/>
  </g>
</svg>
